<?xml version="1.0" encoding="utf-8"?>
<!-- Generator: Adobe Illustrator 19.0.0, SVG Export Plug-In . SVG Version: 6.00 Build 0)  -->
<svg version="1.1" id="Слой_1" xmlns="http://www.w3.org/2000/svg" xmlns:xlink="http://www.w3.org/1999/xlink" x="0px" y="0px"
	 viewBox="-295 388 20 17" style="enable-background:new -295 388 20 17;" xml:space="preserve">
<style type="text/css">
	.st0{fill:#0F0505;}
	.st1{fill:#100505;}
</style>
<path class="st0" d="M-277,395.5h-16c-1.1,0-2-0.9-2-2v-3c0-1.1,0.9-2,2-2h16c1.1,0,2,0.9,2,2v3C-275,394.6-275.9,395.5-277,395.5z
	 M-293,390.5L-293,390.5v3h16v-3H-293z"/>
<path class="st1" d="M-277,404.5h-16c-1.1,0-2-0.9-2-2v-3c0-1.1,0.9-2,2-2h16c1.1,0,2,0.9,2,2v3C-275,403.6-275.9,404.5-277,404.5z
	 M-293,399.5L-293,399.5v3h16v-3H-293z"/>
</svg>
