<svg width="50" height="51" viewBox="0 0 50 51" fill="none" xmlns="http://www.w3.org/2000/svg">
<path d="M49.1769 13.0827C48.713 13.0827 48.3467 13.4612 48.3467 13.9129V46.4127C48.3467 47.7923 47.2235 48.9155 45.8439 48.9155H25.8338V46.9987C27.0546 46.5714 30.2167 45.5825 33.3299 45.5825C40.5942 45.5825 45.5143 47.194 45.5631 47.2063C45.8195 47.2917 46.0881 47.2429 46.3079 47.0964C46.5276 46.9377 46.6497 46.6935 46.6497 46.4249V9.74975C46.6497 9.35907 46.3811 9.01723 46.0026 8.93177C46.0026 8.93177 45.3434 8.78526 44.2324 8.57771C43.7806 8.49225 43.3411 8.79747 43.2679 9.2492C43.1824 9.70092 43.4876 10.1404 43.9394 10.2259C44.3667 10.2991 44.7207 10.3724 45.0015 10.4334V45.3139C43.1092 44.8133 38.9216 43.9221 33.3299 43.9221C29.7039 43.9221 26.1268 45.1186 25.028 45.5214C24.0513 45.0819 21.0845 43.9221 17.4952 43.9221C11.757 43.9221 7.02004 44.8744 4.99338 45.3505V10.3968C6.65378 9.98172 11.5739 8.91956 17.4952 8.91956C20.5351 8.91956 23.1356 9.87184 24.1611 10.2991V43.0919C24.1611 43.3971 24.3199 43.6657 24.5885 43.8122C24.8448 43.9587 25.1745 43.9587 25.4309 43.8C25.5163 43.7512 33.7694 38.8188 41.0947 36.3771C41.4366 36.2672 41.6685 35.9498 41.6685 35.5835V1.41117C41.6685 1.14257 41.5342 0.886189 41.3145 0.727475C41.0947 0.568761 40.8017 0.532134 40.5453 0.629804C33.8793 3.1326 27.1279 7.33242 27.0668 7.36904C26.6762 7.61322 26.5541 8.12599 26.7982 8.51667C27.0424 8.90735 27.5552 9.02944 27.9459 8.78526C28.0069 8.74864 33.8793 5.09821 40.0081 2.63204V34.9853C34.3188 36.9631 28.3732 40.1862 25.8338 41.6391V9.74975C25.8338 9.43233 25.6506 9.15152 25.3698 9.00502C25.2233 8.93177 21.8049 7.24696 17.4952 7.24696C9.96235 7.24696 4.1754 8.87072 3.93122 8.94398C3.57717 9.04165 3.33299 9.37128 3.33299 9.74975V46.4249C3.33299 46.6813 3.45508 46.9377 3.66263 47.0842C3.80914 47.194 3.98006 47.2551 4.16319 47.2551C4.23644 47.2551 4.3219 47.2429 4.39516 47.2185C4.4562 47.2063 10.2187 45.5825 17.5074 45.5825C20.5596 45.5825 23.16 46.5348 24.1734 46.9621V48.9155H4.16319C2.7836 48.9155 1.66039 47.7923 1.66039 46.4127V13.9129C1.66039 13.449 1.28192 13.0827 0.830197 13.0827C0.366263 13.0827 0 13.4612 0 13.9129V46.4127C0 48.7079 1.86794 50.5759 4.16319 50.5759H45.8317C48.127 50.5759 49.9949 48.7079 49.9949 46.4127V13.9129C50.0071 13.4612 49.6286 13.0827 49.1769 13.0827Z" fill="#00093C"/>
</svg>
