<?xml version="1.0" encoding="utf-8"?>
<!-- Generator: Adobe Illustrator 19.0.0, SVG Export Plug-In . SVG Version: 6.00 Build 0)  -->
<svg version="1.1" id="Слой_1" xmlns="http://www.w3.org/2000/svg" xmlns:xlink="http://www.w3.org/1999/xlink" x="0px" y="0px"
	 viewBox="-255 361 100 71" style="enable-background:new -255 361 100 71;" xml:space="preserve">
<style type="text/css">
	.st0{fill:#00093C;}
	.st1{fill:#0F0505;}
	.st2{fill:#100505;}
</style>
<path class="st0" d="M-238.5,431.6c-9.1,0-16.5-7.4-16.5-16.5c0-9.1,7.4-16.5,16.5-16.5c9.1,0,16.5,7.4,16.5,16.5
	C-222.1,424.3-229.5,431.6-238.5,431.6z"/>
<path class="st1" d="M-238.5,431.6c-9.1,0-16.5-7.4-16.5-16.5c0-9.1,7.4-16.5,16.5-16.5c9.1,0,16.5,7.4,16.5,16.5
	C-222.1,424.3-229.5,431.6-238.5,431.6z"/>
<path class="st2" d="M-199.6,362.8l-17.9,29.2c-0.5,0.8,0,1.9,1,1.9h17.9h17.9c0.9,0,1.5-1.1,1-1.9l-17.9-29.2
	C-198.1,362.1-199.2,362.1-199.6,362.8z"/>
<path class="st1" d="M-222.4,367.8l-6.4-6.4c-0.4-0.4-1.2-0.4-1.7,0l-7.1,7.1c-0.4,0.4-1.2,0.4-1.7,0l-7.1-7.1
	c-0.4-0.4-1.2-0.4-1.7,0l-6.4,6.4c-0.4,0.4-0.4,1.2,0,1.7l7.1,7.1c0.4,0.4,0.4,1.2,0,1.7l-7.1,7.1c-0.4,0.4-0.4,1.2,0,1.7l6.4,6.4
	c0.4,0.4,1.2,0.4,1.7,0l7.1-7.1c0.4-0.4,1.2-0.4,1.7,0l7.1,7.1c0.4,0.4,1.2,0.4,1.7,0l6.4-6.4c0.4-0.4,0.4-1.2,0-1.7l-7.1-7.1
	c-0.4-0.4-0.4-1.2,0-1.7l7.1-7.1C-221.9,369-221.9,368.3-222.4,367.8z"/>
<path d="M-214.3,410.1v2.1h3.6v1.4h-3.6v2.8h-1.8v-7.8h5.9v1.4H-214.3z"/>
<path d="M-207.8,415.7c-0.6-0.6-0.9-1.5-0.9-2.6v-4.4h1.8v4.3c0,1.4,0.6,2.1,1.7,2.1c0.5,0,1-0.1,1.3-0.5c0.3-0.3,0.4-0.8,0.4-1.6
	v-4.3h1.8v4.4c0,1.1-0.3,2-0.9,2.6c-0.6,0.6-1.5,0.9-2.6,0.9C-206.3,416.6-207.2,416.3-207.8,415.7z"/>
<path d="M-198.1,410.1h-2.5v-1.5h6.8v1.5h-2.5v6.3h-1.8V410.1z"/>
<path d="M-191.7,415.7c-0.6-0.6-0.9-1.5-0.9-2.6v-4.4h1.8v4.3c0,1.4,0.6,2.1,1.7,2.1c0.5,0,1-0.1,1.3-0.5s0.4-0.8,0.4-1.6v-4.3h1.8
	v4.4c0,1.1-0.3,2-0.9,2.6c-0.6,0.6-1.5,0.9-2.6,0.9C-190.2,416.6-191.1,416.3-191.7,415.7z"/>
<path d="M-178.5,416.5l-1.5-2.2h-0.1h-1.6v2.2h-1.8v-7.8h3.4c0.7,0,1.3,0.1,1.8,0.3c0.5,0.2,0.9,0.5,1.2,1c0.2,0.4,0.4,0.9,0.4,1.5
	c0,0.6-0.1,1.1-0.4,1.5c-0.3,0.4-0.7,0.7-1.2,0.9l1.7,2.5H-178.5z M-179,410.5c-0.3-0.2-0.7-0.3-1.2-0.3h-1.5v2.7h1.5
	c0.5,0,0.9-0.1,1.2-0.3c0.3-0.2,0.4-0.5,0.4-1C-178.5,411-178.7,410.7-179,410.5z"/>
<path d="M-168.9,415v1.4h-6v-7.8h5.9v1.4h-4.1v1.7h3.6v1.4h-3.6v1.8H-168.9z"/>
<path d="M-211,429.3h-3.6l-0.7,1.7h-1.8l3.5-7.8h1.8l3.5,7.8h-1.9L-211,429.3z M-211.5,427.9l-1.2-3l-1.2,3H-211.5z"/>
<path d="M-205.8,430.5c-0.6-0.3-1.1-0.8-1.5-1.4c-0.3-0.6-0.5-1.3-0.5-2.1c0-0.7,0.2-1.4,0.5-2.1c0.3-0.6,0.9-1.1,1.5-1.4
	c0.6-0.3,1.3-0.5,2.1-0.5c0.7,0,1.3,0.1,1.8,0.3c0.5,0.2,1,0.6,1.4,1l-1.1,1c-0.5-0.6-1.2-0.9-1.9-0.9c-0.5,0-0.9,0.1-1.3,0.3
	c-0.4,0.2-0.7,0.5-0.9,0.9s-0.3,0.8-0.3,1.3c0,0.5,0.1,0.9,0.3,1.3s0.5,0.7,0.9,0.9s0.8,0.3,1.3,0.3c0.8,0,1.4-0.3,1.9-0.9l1.1,1
	c-0.3,0.4-0.8,0.8-1.4,1c-0.5,0.2-1.1,0.3-1.8,0.3C-204.4,431-205.1,430.9-205.8,430.5z"/>
<path d="M-193.9,429.3h-3.6l-0.7,1.7h-1.8l3.5-7.8h1.8l3.5,7.8h-1.9L-193.9,429.3z M-194.4,427.9l-1.2-3l-1.2,3H-194.4z"/>
<path d="M-190.1,423.1h3.5c0.8,0,1.6,0.1,2.2,0.5c0.6,0.3,1.1,0.8,1.5,1.3c0.3,0.6,0.5,1.2,0.5,2s-0.2,1.4-0.5,2
	c-0.3,0.6-0.8,1-1.5,1.3c-0.6,0.3-1.4,0.5-2.2,0.5h-3.5V423.1z M-186.7,429.5c0.8,0,1.4-0.2,1.8-0.6c0.4-0.4,0.7-1,0.7-1.7
	c0-0.7-0.2-1.3-0.7-1.7c-0.4-0.4-1.1-0.6-1.8-0.6h-1.6v4.8L-186.7,429.5L-186.7,429.5z"/>
<path d="M-174.6,429.5v1.4h-6v-7.8h5.9v1.4h-4.1v1.7h3.6v1.4h-3.6v1.8H-174.6z"/>
<path d="M-165.7,430.9v-4.7l-2.3,3.8h-0.8l-2.3-3.7v4.6h-1.7v-7.8h1.5l2.9,4.8l2.9-4.8h1.5v7.8H-165.7z"/>
<path d="M-158,428.2v2.8h-1.8v-2.8l-3-5h1.9l2.1,3.5l2-3.5h1.8L-158,428.2z"/>
</svg>
