<svg width="17" height="20" viewBox="0 0 17 20" fill="none" xmlns="http://www.w3.org/2000/svg">
<mask id="path-1-inside-1_64_7987" fill="white">
<path d="M17 8.5C17 15 8.5 20 8.5 20C8.5 20 0 15 0 8.5C0 3.80558 3.80558 0 8.5 0C13.1944 0 17 3.80558 17 8.5Z"/>
</mask>
<path d="M8.5 20L7.48596 21.7239L8.5 22.3204L9.51404 21.7239L8.5 20ZM15 8.5C15 10.9065 13.385 13.284 11.357 15.2523C10.3846 16.1962 9.40427 16.9611 8.66414 17.4908C8.29587 17.7544 7.99165 17.9564 7.78372 18.0901C7.67987 18.1569 7.60038 18.2063 7.54932 18.2377C7.5238 18.2533 7.50541 18.2645 7.49467 18.2709C7.48931 18.2741 7.48585 18.2762 7.48438 18.2771C7.48364 18.2775 7.4834 18.2776 7.48366 18.2775C7.48379 18.2774 7.48405 18.2773 7.48443 18.277C7.48462 18.2769 7.485 18.2767 7.4851 18.2766C7.48551 18.2764 7.48596 18.2761 8.5 20C9.51404 21.7239 9.51455 21.7236 9.51509 21.7232C9.51532 21.7231 9.5159 21.7228 9.51635 21.7225C9.51725 21.722 9.51828 21.7214 9.51944 21.7207C9.52176 21.7193 9.52459 21.7176 9.52794 21.7156C9.53464 21.7117 9.54338 21.7064 9.55409 21.7C9.57552 21.6871 9.60487 21.6694 9.6416 21.6468C9.71505 21.6018 9.81818 21.5375 9.94675 21.4548C10.2037 21.2897 10.5635 21.0503 10.9921 20.7436C11.8457 20.1326 12.9904 19.2413 14.143 18.1227C16.365 15.966 19 12.5935 19 8.5H15ZM8.5 20C9.51404 18.2761 9.51449 18.2764 9.5149 18.2766C9.515 18.2767 9.51538 18.2769 9.51557 18.277C9.51595 18.2773 9.51621 18.2774 9.51634 18.2775C9.5166 18.2776 9.51636 18.2775 9.51562 18.2771C9.51415 18.2762 9.51069 18.2741 9.50533 18.2709C9.49459 18.2645 9.4762 18.2533 9.45068 18.2377C9.39962 18.2063 9.32013 18.1569 9.21628 18.0901C9.00835 17.9564 8.70413 17.7544 8.33586 17.4908C7.59573 16.9611 6.6154 16.1962 5.64295 15.2523C3.61498 13.284 2 10.9065 2 8.5H-2C-2 12.5935 0.635024 15.966 2.85705 18.1227C4.0096 19.2413 5.15427 20.1326 6.00789 20.7436C6.4365 21.0503 6.79634 21.2897 7.05325 21.4548C7.18182 21.5375 7.28495 21.6018 7.3584 21.6468C7.39513 21.6694 7.42448 21.6871 7.44591 21.7C7.45662 21.7064 7.46536 21.7117 7.47206 21.7156C7.47541 21.7176 7.47824 21.7193 7.48056 21.7207C7.48172 21.7214 7.48275 21.722 7.48365 21.7225C7.4841 21.7228 7.48468 21.7231 7.4849 21.7232C7.48545 21.7236 7.48596 21.7239 8.5 20ZM2 8.5C2 4.91015 4.91015 2 8.5 2V-2C2.70101 -2 -2 2.70101 -2 8.5H2ZM8.5 2C12.0899 2 15 4.91015 15 8.5H19C19 2.70101 14.299 -2 8.5 -2V2Z" fill="white" mask="url(#path-1-inside-1_64_7987)"/>
<circle cx="8.5" cy="7.5" r="2.5" fill="white"/>
</svg>
